<?xml version="1.0" standalone="no"?>
<!DOCTYPE svg PUBLIC "-//W3C//DTD SVG 20010904//EN"
 "http://www.w3.org/TR/2001/REC-SVG-20010904/DTD/svg10.dtd">
<svg version="1.0" xmlns="http://www.w3.org/2000/svg"
 width="1128.000000pt" height="433.000000pt" viewBox="0 0 1128.000000 433.000000"
 preserveAspectRatio="xMidYMid meet">

<g transform="translate(0.000000,433.000000) scale(0.100000,-0.100000)"
fill="#8B2323" stroke="none">
<path d="M2085 4259 c-142 -8 -224 -21 -360 -55 -155 -39 -261 -77 -240 -84
10 -4 37 0 59 7 30 11 82 13 220 9 218 -5 267 -12 259 -33 -5 -13 1 -15 41 -9
25 4 55 4 67 1 30 -10 7 -31 -43 -39 -51 -8 -100 -36 -93 -54 2 -7 -7 -30 -21
-52 -25 -38 -57 -57 -119 -71 l-30 -6 35 -2 c33 -2 34 -3 16 -16 -17 -13 -17
-15 -3 -21 31 -12 18 -27 -18 -21 -38 6 -60 -11 -26 -20 40 -10 4 -30 -77 -43
-42 -6 -81 -10 -87 -9 -17 5 -58 -12 -91 -36 -17 -13 -57 -28 -89 -34 -32 -6
-68 -17 -79 -25 -43 -30 -76 -64 -76 -79 0 -8 -14 -27 -31 -41 -23 -19 -37
-24 -57 -20 -41 9 -102 52 -103 72 0 9 -1 40 -2 67 -3 63 7 95 31 95 32 0 62
29 62 61 0 27 -2 29 -21 18 -31 -16 -45 3 -25 33 15 24 15 27 -14 66 l-30 41
-63 -39 c-105 -66 -269 -204 -366 -306 -77 -83 -91 -103 -91 -131 0 -45 22
-51 70 -19 66 43 78 32 71 -65 -1 -17 8 -34 29 -52 16 -15 30 -25 30 -22 0 3
10 -3 21 -14 27 -25 19 -71 -11 -71 -11 0 -20 -4 -20 -10 0 -5 -7 -10 -15 -10
-9 0 -27 -7 -40 -16 -16 -11 -54 -17 -111 -20 -47 -2 -103 -9 -123 -15 -35
-11 -114 -59 -98 -59 4 0 18 7 31 15 33 22 116 31 126 14 11 -17 3 -29 -20
-29 -25 0 -32 -23 -14 -49 19 -27 44 -27 79 0 22 18 29 20 36 8 13 -21 11 -29
-9 -35 -9 -3 -28 -11 -42 -19 -14 -7 -39 -16 -57 -19 -17 -4 -37 -14 -44 -22
-13 -15 -45 -19 -53 -6 -3 5 4 19 16 32 l21 22 -24 -7 c-13 -4 -33 -13 -44
-19 -11 -7 -33 -16 -50 -20 -38 -9 -65 -34 -65 -57 0 -11 -10 -21 -24 -25 -27
-7 -35 -23 -70 -146 -67 -235 -95 -496 -77 -716 8 -101 15 -140 26 -148 8 -6
15 -15 15 -21 0 -8 23 -11 123 -14 20 0 37 -5 37 -11 0 -5 14 -14 30 -19 17
-6 30 -15 30 -20 0 -5 6 -9 14 -9 8 0 22 -12 31 -28 23 -39 78 -72 121 -72 57
0 116 -41 142 -99 18 -39 20 -54 12 -75 -14 -37 -13 -38 9 -26 23 12 51 3 51
-16 0 -7 -10 -20 -22 -28 -31 -22 -15 -20 28 3 33 18 37 18 74 3 26 -11 40
-23 40 -36 0 -13 5 -16 17 -12 9 4 43 4 77 0 47 -6 65 -13 85 -34 31 -33 62
-50 90 -50 26 0 41 -28 41 -78 0 -30 -8 -47 -34 -77 -19 -21 -38 -50 -41 -64
-4 -14 -16 -32 -27 -39 -17 -13 -19 -22 -14 -62 4 -32 0 -73 -13 -126 -33
-137 -50 -164 -104 -164 -24 0 -103 -36 -129 -58 -10 -8 -18 -23 -18 -33 0
-35 282 -239 440 -319 723 -363 1565 -294 2207 181 51 38 111 85 134 106 37
33 39 38 24 49 -10 7 -21 34 -26 60 -8 40 -6 50 13 76 15 22 22 48 23 93 3 72
8 85 36 85 11 0 30 11 42 23 12 13 32 29 45 36 12 6 22 20 22 31 0 10 4 21 9
24 13 9 28 -15 35 -57 5 -28 3 -39 -7 -43 -8 -3 -13 -13 -10 -23 2 -10 -12
-60 -31 -111 -20 -51 -35 -95 -33 -97 12 -12 166 183 254 322 150 236 265 552
304 840 14 99 18 429 6 441 -4 4 -53 7 -110 6 -119 -2 -173 8 -194 37 -12 17
-21 20 -47 15 -41 -7 -131 35 -141 66 -9 28 -33 50 -56 50 -27 0 -24 -31 6
-76 14 -20 25 -45 25 -54 0 -23 69 -70 102 -70 16 0 37 12 55 30 34 36 39 37
47 5 4 -16 25 -37 56 -56 52 -32 62 -56 34 -80 -8 -7 -22 -25 -29 -39 -26 -50
-78 -100 -110 -106 -18 -3 -46 -21 -64 -40 -18 -19 -45 -37 -59 -41 -15 -3
-52 -19 -83 -35 -31 -15 -68 -28 -82 -28 -32 0 -54 34 -59 92 -4 44 -20 73
-80 138 -14 16 -31 46 -38 67 -14 42 -76 141 -101 160 -9 7 -22 25 -28 41 -9
22 -19 29 -40 29 l-27 0 43 -76 c24 -42 46 -85 49 -95 4 -11 13 -26 20 -34 8
-7 16 -25 20 -40 12 -58 79 -168 136 -223 32 -31 58 -66 58 -76 0 -22 26 -49
50 -54 26 -5 113 11 153 28 68 30 73 -15 12 -127 -13 -25 -35 -67 -49 -95 -17
-34 -44 -65 -83 -94 -57 -44 -107 -98 -171 -189 -33 -45 -33 -49 -28 -121 3
-41 13 -85 21 -98 10 -15 17 -51 18 -102 2 -88 -10 -112 -69 -137 -17 -7 -51
-36 -74 -64 -35 -42 -41 -55 -35 -78 21 -84 20 -87 -28 -116 -45 -26 -65 -55
-52 -76 15 -25 -102 -167 -180 -218 -41 -28 -56 -32 -87 -28 -21 4 -59 1 -84
-4 -60 -14 -99 7 -91 47 5 26 -39 127 -66 155 -8 7 -23 60 -35 117 -12 61 -35
133 -56 178 -20 41 -36 83 -36 94 0 35 30 132 46 150 13 14 15 28 9 56 -4 21
-8 52 -9 68 -2 17 -10 44 -19 62 -9 18 -17 41 -17 51 0 11 -19 41 -42 67 -38
43 -43 54 -41 94 0 25 4 63 8 84 11 57 -13 87 -70 87 -38 0 -46 4 -57 27 -21
45 -57 51 -146 23 -42 -13 -99 -25 -127 -25 -27 -1 -68 -6 -90 -11 -70 -16
-94 -7 -157 58 -32 33 -58 68 -58 77 0 9 -25 43 -56 75 -40 44 -54 65 -50 80
3 11 0 26 -5 33 -8 9 -5 25 11 58 22 46 23 63 4 167 -5 29 -1 43 18 70 13 18
30 47 38 63 26 53 50 80 105 121 43 30 55 45 55 66 0 38 30 86 65 102 17 8 39
29 50 45 22 34 35 38 68 17 37 -24 60 -21 111 12 28 18 64 33 80 34 17 0 60 2
96 3 36 1 75 5 88 9 31 10 86 -2 74 -17 -13 -17 -9 -82 7 -101 7 -9 22 -16 33
-16 25 0 80 -29 95 -50 18 -26 99 -46 118 -30 9 7 14 22 13 33 -5 36 23 42 93
19 52 -17 238 -42 311 -42 22 0 40 51 45 129 l4 64 -28 -8 c-28 -8 -42 -9 -98
-5 -16 1 -42 -1 -58 -5 -23 -6 -32 -2 -61 30 -21 23 -32 43 -29 55 3 10 0 21
-6 24 -17 11 -13 26 7 27 14 0 14 2 -3 9 -28 12 -75 12 -75 0 0 -5 -7 -10 -16
-10 -18 0 -10 -35 14 -60 14 -13 14 -15 -2 -18 -12 -3 -16 -10 -13 -23 10 -37
-31 -21 -59 24 -15 23 -35 48 -46 55 -11 8 -18 25 -18 45 0 30 -27 67 -49 67
-17 0 -69 31 -75 45 -3 8 -12 15 -20 15 -7 0 -16 7 -20 15 -6 17 -36 9 -36
-11 0 -7 10 -20 21 -28 12 -8 27 -25 33 -38 6 -12 20 -24 31 -27 11 -2 24 -9
28 -17 4 -8 17 -14 27 -14 11 0 24 -9 30 -21 13 -24 5 -38 -12 -21 -19 19 -29
14 -23 -11 4 -15 1 -28 -9 -36 -18 -15 -37 -6 -30 14 9 23 -15 54 -59 76 -55
29 -97 60 -97 74 0 24 -22 34 -49 22 -14 -6 -29 -16 -33 -21 -4 -6 -29 -9 -56
-8 -45 2 -50 0 -56 -22 -3 -13 -24 -35 -46 -50 -22 -14 -41 -32 -42 -39 0 -6
-2 -17 -2 -22 -2 -17 -40 -61 -63 -73 -12 -7 -35 -12 -50 -12 -16 0 -34 -5
-40 -11 -9 -9 -18 -8 -36 4 -13 8 -37 17 -53 19 -28 3 -29 5 -26 53 7 141 10
168 23 176 8 4 51 2 97 -4 93 -12 100 -9 109 47 5 33 2 40 -27 66 -19 17 -38
30 -44 30 -20 0 9 18 34 22 14 1 25 9 25 17 0 18 21 26 30 12 11 -19 34 -12
62 19 14 17 32 30 38 30 7 0 31 18 54 40 24 24 51 40 64 40 31 0 59 30 47 50
-18 27 -10 49 21 66 26 13 33 13 40 3 5 -8 2 -20 -5 -29 -8 -8 -17 -25 -20
-36 -5 -17 -2 -23 19 -28 14 -4 36 -4 49 0 13 3 33 1 43 -4 12 -7 25 -7 37 0
10 6 38 10 61 10 32 -1 48 4 64 22 12 13 21 27 20 32 -4 25 4 34 29 34 37 0
44 8 31 32 -14 26 -5 33 44 32 23 -1 47 5 55 12 7 8 10 14 5 15 -4 0 -40 1
-79 2 -78 2 -104 15 -104 53 0 23 10 35 55 68 19 14 19 16 3 33 -17 16 -20 15
-60 -24 -24 -22 -53 -44 -64 -47 -34 -10 -39 -47 -9 -73 30 -27 31 -39 5 -53
-11 -6 -28 -27 -38 -47 -12 -25 -28 -39 -57 -50 -74 -27 -75 -27 -75 -5 0 11
5 22 12 24 17 6 1 55 -21 68 -14 7 -27 6 -47 -5 -24 -12 -31 -12 -56 1 -15 8
-28 18 -29 22 0 4 -2 23 -5 43 -5 39 11 57 66 74 27 8 90 53 102 71 4 6 27 32
51 57 83 88 247 121 383 78 33 -10 88 -26 124 -35 36 -10 74 -24 84 -31 19
-14 19 -15 1 -35 -27 -30 -48 -32 -104 -10 -28 11 -51 17 -51 15 0 -3 11 -10
25 -15 14 -5 25 -16 25 -25 0 -16 47 -51 57 -42 3 4 0 14 -7 23 -12 14 -10 15
22 9 31 -6 38 -4 47 14 9 15 21 21 46 21 39 0 42 5 19 35 -13 18 -13 20 3 26
28 9 53 -1 53 -23 0 -15 5 -18 23 -13 12 4 34 15 49 26 15 10 44 19 65 19 l38
1 -45 40 c-119 107 -388 263 -594 343 -241 96 -577 143 -881 125z m-233 -585
c12 -12 21 -14 30 -6 13 10 84 13 126 6 54 -10 11 -55 -71 -74 -41 -9 -53 -8
-80 7 -45 25 -51 37 -38 81 2 6 16 0 33 -14z m1013 -184 c-3 -5 -12 -7 -20 -3
-21 7 -19 13 6 13 11 0 18 -4 14 -10z m65 -50 c0 -5 -9 -10 -21 -10 -11 0 -17
5 -14 10 3 6 13 10 21 10 8 0 14 -4 14 -10z m-665 -20 c-3 -5 -1 -10 5 -10 6
0 9 -8 6 -18 -4 -12 5 -29 29 -52 19 -19 35 -42 35 -51 0 -9 9 -19 20 -22 18
-5 19 -8 9 -30 -12 -26 -53 -43 -126 -51 -45 -4 -56 6 -25 23 11 7 13 13 6 18
-17 13 -12 53 8 53 9 0 19 3 22 8 6 10 -15 37 -36 45 -10 3 -18 13 -18 22 0 8
-4 15 -10 15 -13 0 -1 32 18 48 19 14 66 16 57 2z m-75 -95 c0 -8 -5 -15 -11
-15 -5 0 -8 -4 -4 -10 11 -18 -7 -60 -26 -60 -10 0 -30 -5 -44 -12 -14 -6 -27
-9 -30 -6 -3 2 -2 25 1 50 7 51 26 66 82 67 22 1 32 -4 32 -14z m-1350 -109
c0 -3 -7 -11 -15 -20 -13 -13 -13 -16 0 -30 9 -9 23 -19 31 -24 18 -10 27 -52
15 -70 -11 -18 -47 -10 -43 8 3 11 0 11 -12 0 -9 -7 -16 -8 -16 -3 0 6 -23 13
-51 17 -50 7 -51 8 -33 25 11 10 36 37 57 60 32 34 67 53 67 37z m1750 -302
c0 -9 -5 -14 -12 -12 -18 6 -21 28 -4 28 9 0 16 -7 16 -16z m0 -69 c0 -28 -4
-35 -19 -35 -13 0 -20 9 -23 30 -2 16 0 32 6 34 28 11 36 5 36 -29z m160 -85
c0 -22 -20 -26 -51 -9 -26 14 -15 29 22 29 22 0 29 -5 29 -20z"/>
<path d="M3321 3066 c-53 -23 -53 -35 2 -37 16 0 10 -6 -21 -21 -34 -15 -46
-17 -58 -7 -11 9 -11 15 -3 25 9 10 5 16 -14 25 -35 16 -49 8 -86 -46 -33 -48
-38 -74 -21 -105 8 -15 6 -21 -7 -29 -16 -9 -16 -10 -2 -11 9 0 22 7 30 16 7
9 21 13 34 10 12 -3 32 2 44 11 28 19 109 13 143 -12 33 -22 100 -20 115 4 10
16 9 24 -8 45 -11 14 -25 26 -31 26 -5 0 -28 14 -50 32 -38 29 -39 32 -22 45
10 7 15 13 11 13 -4 0 -3 9 3 20 13 25 8 25 -59 -4z"/>
<path d="M3693 3052 c-18 -10 -40 -27 -48 -39 -13 -18 -13 -22 0 -33 8 -7 15
-17 15 -22 0 -5 18 -32 40 -60 30 -37 39 -56 34 -72 -4 -11 -10 -22 -15 -24
-18 -7 6 -34 52 -57 57 -29 63 -30 83 -9 23 23 19 54 -11 86 l-26 27 28 11 28
11 -23 24 c-13 14 -29 25 -36 25 -6 0 -28 16 -48 36 -41 41 -36 61 17 66 l32
3 -22 23 c-27 26 -56 27 -100 4z"/>
<path d="M4660 2140 l0 -730 560 0 560 0 0 730 0 730 -560 0 -560 0 0 -730z
m1080 0 l0 -690 -525 0 -525 0 0 683 c0 376 3 687 7 690 3 4 240 7 525 7 l518
0 0 -690z"/>
<path d="M4951 2639 c-41 -5 -76 -10 -78 -12 -2 -3 2 -58 8 -123 7 -69 12
-277 12 -496 l0 -377 66 5 c119 9 107 -9 115 176 6 151 -7 699 -20 796 -3 24
-10 41 -17 41 -7 -1 -45 -5 -86 -10z"/>
<path d="M5368 2621 c-56 -36 -87 -75 -133 -172 -83 -175 -100 -450 -38 -619
28 -76 74 -141 122 -171 58 -37 143 -40 201 -8 l38 21 0 114 1 114 -29 -15
c-67 -35 -132 -1 -167 85 -48 118 -20 343 52 427 28 33 38 38 74 37 34 -1 42
2 46 20 2 11 9 48 16 81 6 33 13 65 16 71 6 17 -60 44 -109 44 -31 0 -57 -8
-90 -29z"/>
<path d="M7270 2656 l-55 -11 -8 -195 c-8 -204 -6 -805 3 -813 3 -3 37 -7 77
-9 l72 -4 -1 376 c0 206 3 441 7 523 l8 147 -24 -1 c-13 -1 -49 -6 -79 -13z"/>
<path d="M8455 2650 c-67 -10 -126 -41 -164 -87 -39 -47 -51 -89 -51 -178 0
-80 16 -121 100 -258 54 -89 72 -143 63 -188 -7 -35 -58 -88 -92 -95 -14 -3
-35 -7 -47 -9 -20 -4 -20 -7 -8 -67 8 -35 14 -80 14 -100 l0 -38 45 0 c63 0
149 35 192 78 60 62 87 133 87 232 0 104 -16 147 -104 284 -75 119 -87 171
-49 212 26 28 91 48 126 39 27 -6 27 -2 -11 115 -23 71 -24 72 -101 60z"/>
<path d="M6175 2643 c-11 -2 -33 -8 -50 -14 l-30 -9 0 -267 c-1 -258 -10 -394
-41 -588 -8 -49 -14 -93 -14 -96 0 -3 27 -9 60 -12 33 -4 72 -10 85 -13 l25
-6 0 118 c0 162 11 319 21 302 13 -23 58 -255 65 -337 l7 -73 45 6 c25 3 50 6
57 6 9 0 15 29 20 93 8 111 34 297 44 314 4 7 12 -56 19 -140 12 -140 33 -282
44 -293 3 -2 29 6 59 20 30 13 62 26 73 30 15 5 17 12 12 39 -63 308 -81 486
-72 702 3 88 8 170 12 181 5 20 1 22 -73 26 -43 3 -79 4 -81 3 -2 -2 -8 -50
-13 -107 -12 -128 -43 -316 -72 -428 -20 -81 -21 -83 -28 -50 -4 19 -15 89
-23 155 -9 66 -30 193 -47 283 -31 161 -31 162 -58 161 -14 -1 -35 -3 -46 -6z"/>
<path d="M7786 2508 c4 -51 7 -93 8 -94 0 0 36 1 79 4 l77 4 0 89 0 89 -85 0
-86 0 7 -92z"/>
<path d="M9876 2508 c3 -51 7 -93 8 -94 0 0 36 1 79 4 l77 4 0 89 0 89 -86 0
-86 0 8 -92z"/>
<path d="M7560 2481 l-75 -17 0 -157 0 -157 -26 -5 c-23 -5 -27 -13 -33 -52
-13 -95 -10 -102 34 -109 l40 -7 0 -86 c0 -47 3 -123 7 -168 l6 -83 73 0 74 0
-7 169 -6 170 29 6 c60 14 65 17 60 32 -3 8 -6 44 -6 79 l0 64 -41 0 -41 0 4
170 c2 112 0 170 -7 169 -5 -1 -44 -9 -85 -18z"/>
<path d="M8824 2306 c-46 -20 -99 -90 -129 -169 -67 -179 -30 -404 77 -474 35
-24 52 -28 107 -28 96 0 133 24 145 92 11 66 2 108 -22 97 -9 -4 -38 -9 -63
-12 -41 -3 -49 -1 -68 23 -11 15 -21 33 -21 39 0 7 44 25 98 42 l97 29 3 44
c4 55 -23 193 -48 241 -41 80 -104 107 -176 76z m69 -180 c3 -7 8 -34 12 -58
l7 -45 -41 -10 -41 -11 -1 32 c-2 44 2 68 12 89 11 20 45 23 52 3z"/>
<path d="M9215 2304 c-27 -7 -61 -14 -74 -14 -24 0 -24 -1 -17 -77 3 -42 6
-187 6 -323 l0 -248 48 -6 c26 -4 62 -10 80 -13 l32 -5 0 242 0 243 59 -6 59
-5 23 69 c13 37 25 67 26 65 7 -7 56 -276 77 -426 l23 -155 74 -3 75 -3 12 70
c6 38 39 183 72 322 34 138 60 252 58 254 -13 9 -124 21 -129 14 -3 -5 -18
-79 -34 -165 -16 -85 -32 -157 -37 -160 -4 -3 -8 -1 -8 4 0 17 -51 316 -54
320 -2 1 -33 0 -70 -4 -47 -5 -66 -11 -66 -21 0 -10 -5 -11 -19 -3 -35 18
-102 12 -128 -12 l-23 -21 0 41 c0 23 -3 42 -7 41 -5 0 -30 -7 -58 -15z"/>
<path d="M10650 2301 c-70 -37 -132 -150 -148 -270 -14 -99 3 -223 38 -289 43
-81 85 -107 169 -107 76 1 127 23 141 61 6 14 10 50 10 81 0 49 -2 54 -17 47
-10 -4 -41 -9 -69 -12 -46 -3 -53 -1 -73 24 -11 14 -21 32 -21 38 0 7 42 24
93 40 52 15 99 31 105 35 9 5 9 29 2 92 -28 228 -112 323 -230 260z m75 -171
c3 -5 8 -31 12 -58 5 -45 4 -50 -18 -55 -53 -14 -59 -10 -59 39 0 25 5 54 10
65 11 20 45 26 55 9z"/>
<path d="M6810 2296 l-65 -11 -8 -65 c-4 -36 -9 -137 -10 -225 -2 -177 12
-275 47 -328 18 -27 29 -32 68 -35 44 -3 50 0 87 39 40 40 41 41 41 16 0 -55
6 -58 73 -32 l62 23 3 305 2 305 -29 7 c-17 3 -50 3 -76 0 l-45 -7 0 -204 0
-204 -26 -6 c-17 -5 -31 -1 -42 10 -19 19 -22 118 -9 314 5 61 4 112 0 111 -4
-1 -37 -6 -73 -13z"/>
<path d="M7825 2303 l-31 -4 4 -322 c2 -177 5 -323 6 -324 2 -2 37 -6 79 -9
l77 -7 0 149 c0 82 -3 233 -7 337 l-6 187 -46 -2 c-25 0 -60 -3 -76 -5z"/>
<path d="M9914 2303 l-30 -4 4 -322 c2 -177 5 -323 6 -324 2 -2 37 -6 79 -9
l77 -7 0 119 c0 65 -3 217 -7 337 l-6 217 -46 -2 c-25 0 -60 -3 -77 -5z"/>
<path d="M11072 2293 c-88 -31 -141 -117 -127 -207 4 -22 17 -71 30 -107 47
-136 43 -178 -19 -199 l-35 -11 14 -39 c7 -21 17 -59 20 -84 6 -38 11 -46 29
-46 41 0 91 20 129 51 87 72 99 166 42 325 -48 132 -46 157 15 166 28 3 37 29
39 116 l1 52 -47 -1 c-27 0 -67 -7 -91 -16z"/>
<path d="M10269 2277 c-52 -35 -97 -102 -120 -178 -17 -58 -21 -89 -18 -182 4
-103 7 -118 37 -180 54 -109 139 -146 220 -97 30 19 32 23 32 80 0 53 -2 60
-20 60 -87 0 -145 139 -108 261 17 57 44 82 83 76 l31 -5 12 69 c16 93 16 94
-13 107 -41 19 -99 14 -136 -11z"/>
</g>
</svg>
